<?xml version="1.0" encoding="UTF-8"?>
<svg id="Layer_1" xmlns="http://www.w3.org/2000/svg" version="1.1" viewBox="0 0 1811.9 1811.9">
  <!-- Generator: Adobe Illustrator 29.0.0, SVG Export Plug-In . SVG Version: 2.1.0 Build 186)  -->
  <defs>
    <style>
      .st0 {
        fill: #fff;
      }

      .st1 {
        fill: #00007f;
      }
    </style>
  </defs>
  <g>
    <path class="st1" d="M2858.4,703.8c10.9-19.8,26.2-35.3,45.8-46.3,19.6-11.1,41.8-16.6,66.6-16.6s56.4,8,78.1,24.1c21.6,16.1,36.1,37.9,43.4,65.7h-68.6c-5.1-10.7-12.3-18.8-21.7-24.4-9.4-5.6-20-8.4-31.9-8.4-19.2,0-34.8,6.7-46.7,20.1-11.9,13.4-17.9,31.3-17.9,53.6s6,40.3,17.9,53.6c11.9,13.4,27.5,20.1,46.7,20.1s22.6-2.8,31.9-8.4c9.4-5.6,16.6-13.7,21.7-24.4h68.6c-7.3,27.7-21.8,49.6-43.4,65.5-21.7,15.9-47.7,23.9-78.1,23.9s-47-5.5-66.6-16.6c-19.6-11.1-34.8-26.5-45.8-46.2-10.9-19.7-16.4-42.2-16.4-67.5s5.5-47.9,16.4-67.7Z"/>
    <path class="st1" d="M3261.2,899.9l-53.3-96.7h-15v96.7h-62.4v-256.1h104.7c20.2,0,37.4,3.5,51.6,10.6,14.2,7.1,24.9,16.7,31.9,29,7.1,12.3,10.6,26,10.6,41s-4.8,32.2-14.4,45.6c-9.6,13.4-23.8,22.9-42.5,28.5l59.1,101.4h-70.4ZM3193,759h38.7c11.4,0,20-2.8,25.7-8.4,5.7-5.6,8.6-13.5,8.6-23.7s-2.9-17.4-8.6-23c-5.7-5.6-14.3-8.4-25.7-8.4h-38.7v63.5Z"/>
    <path class="st1" d="M3430.9,693.7v51.8h83.5v48.2h-83.5v56.2h94.5v50h-156.9v-256.1h156.9v50h-94.5Z"/>
    <path class="st1" d="M3918.3,643.8l-66.8,256.1h-75.5l-40.9-168.6-42.3,168.6h-75.5l-64.9-256.1h66.8l36.8,186.4,45.6-186.4h68.6l43.8,186.4,37.2-186.4h67.1Z"/>
    <g>
      <path d="M3881.1,938v256.1h-62.4v-153.6l-57.3,153.6h-50.3l-57.6-154v154h-62.4v-256.1h73.7l71.9,177.3,71.1-177.3h73.3Z"/>
      <path d="M4085.4,1148.9h-95.6l-15.3,45.2h-65.3l92.7-256.1h72.2l92.7,256.1h-66l-15.3-45.2ZM4069.4,1100.7l-31.7-93.8-31.4,93.8h63.1Z"/>
      <path d="M4379.1,938v50h-67.9v206.1h-62.4v-206.1h-67.9v-50h198.1Z"/>
      <path d="M4472.9,988v51.8h83.5v48.2h-83.5v56.2h94.5v50h-156.9v-256.1h156.9v50h-94.5Z"/>
    </g>
    <polygon class="st1" points="3076.6 938 2842 938 2970.1 1066.1 2842 1194.1 3076.6 1194.1 3204.7 1066.1 3076.6 938"/>
    <polygon class="st1" points="3365.2 938 3130.6 938 3258.7 1066.1 3130.6 1194.1 3365.2 1194.1 3493.3 1066.1 3365.2 938"/>
  </g>
  <g>
    <path class="st1" d="M5514.9,703.8c10.9-19.8,26.2-35.3,45.8-46.3,19.6-11.1,41.8-16.6,66.6-16.6s56.4,8,78.1,24.1c21.6,16.1,36.1,37.9,43.4,65.7h-68.6c-5.1-10.7-12.3-18.8-21.7-24.4-9.4-5.6-20-8.4-31.9-8.4-19.2,0-34.8,6.7-46.7,20.1-11.9,13.4-17.9,31.3-17.9,53.6s6,40.3,17.9,53.6c11.9,13.4,27.5,20.1,46.7,20.1s22.6-2.8,31.9-8.4c9.4-5.6,16.6-13.7,21.7-24.4h68.6c-7.3,27.7-21.8,49.6-43.4,65.5-21.7,15.9-47.7,23.9-78.1,23.9s-47-5.5-66.6-16.6c-19.6-11.1-34.8-26.5-45.8-46.2-10.9-19.7-16.4-42.2-16.4-67.5s5.5-47.9,16.4-67.7Z"/>
    <path class="st1" d="M5917.7,899.9l-53.3-96.7h-15v96.7h-62.4v-256.1h104.7c20.2,0,37.4,3.5,51.6,10.6,14.2,7.1,24.9,16.7,31.9,29,7.1,12.3,10.6,26,10.6,41s-4.8,32.2-14.4,45.6c-9.6,13.4-23.8,22.9-42.5,28.5l59.1,101.4h-70.4ZM5849.4,759h38.7c11.4,0,20-2.8,25.7-8.4,5.7-5.6,8.6-13.5,8.6-23.7s-2.9-17.4-8.6-23c-5.7-5.6-14.3-8.4-25.7-8.4h-38.7v63.5Z"/>
    <path class="st1" d="M6087.3,693.7v51.8h83.5v48.2h-83.5v56.2h94.5v50h-156.9v-256.1h156.9v50h-94.5Z"/>
    <path class="st1" d="M6574.7,643.8l-66.8,256.1h-75.5l-40.9-168.6-42.3,168.6h-75.5l-64.9-256.1h66.8l36.8,186.4,45.6-186.4h68.6l43.8,186.4,37.2-186.4h67.1Z"/>
    <g>
      <path class="st0" d="M6537.6,938v256.1h-62.4v-153.6l-57.3,153.6h-50.3l-57.6-154v154h-62.4v-256.1h73.7l71.9,177.3,71.1-177.3h73.3Z"/>
      <path class="st0" d="M6741.9,1148.9h-95.6l-15.3,45.2h-65.3l92.7-256.1h72.2l92.7,256.1h-66l-15.3-45.2ZM6725.8,1100.7l-31.7-93.8-31.4,93.8h63.1Z"/>
      <path class="st0" d="M7035.6,938v50h-67.9v206.1h-62.4v-206.1h-67.9v-50h198.1Z"/>
      <path class="st0" d="M7129.3,988v51.8h83.5v48.2h-83.5v56.2h94.5v50h-156.9v-256.1h156.9v50h-94.5Z"/>
    </g>
    <polygon class="st1" points="5733.1 938 5498.5 938 5626.5 1066.1 5498.5 1194.1 5733.1 1194.1 5861.1 1066.1 5733.1 938"/>
    <polygon class="st1" points="6021.7 938 5787 938 5915.1 1066.1 5787 1194.1 6021.7 1194.1 6149.7 1066.1 6021.7 938"/>
  </g>
  <g>
    <path class="st0" d="M2858.4,1621.1c10.9-19.8,26.2-35.3,45.8-46.3,19.6-11.1,41.8-16.6,66.6-16.6s56.4,8,78.1,24.1c21.6,16.1,36.1,37.9,43.4,65.7h-68.6c-5.1-10.7-12.3-18.8-21.7-24.4-9.4-5.6-20-8.4-31.9-8.4-19.2,0-34.8,6.7-46.7,20.1-11.9,13.4-17.9,31.3-17.9,53.6s6,40.3,17.9,53.6c11.9,13.4,27.5,20.1,46.7,20.1s22.6-2.8,31.9-8.4c9.4-5.6,16.6-13.7,21.7-24.4h68.6c-7.3,27.7-21.8,49.6-43.4,65.5-21.7,15.9-47.7,23.9-78.1,23.9s-47-5.5-66.6-16.6c-19.6-11.1-34.8-26.5-45.8-46.2-10.9-19.7-16.4-42.2-16.4-67.5s5.5-47.9,16.4-67.7Z"/>
    <path class="st0" d="M3261.2,1817.2l-53.3-96.7h-15v96.7h-62.4v-256.1h104.7c20.2,0,37.4,3.5,51.6,10.6,14.2,7.1,24.9,16.7,31.9,29,7.1,12.3,10.6,26,10.6,41s-4.8,32.2-14.4,45.6c-9.6,13.4-23.8,22.9-42.5,28.5l59.1,101.4h-70.4ZM3193,1676.4h38.7c11.4,0,20-2.8,25.7-8.4,5.7-5.6,8.6-13.5,8.6-23.7s-2.9-17.4-8.6-23c-5.7-5.6-14.3-8.4-25.7-8.4h-38.7v63.5Z"/>
    <path class="st0" d="M3430.9,1611.1v51.8h83.5v48.2h-83.5v56.2h94.5v50h-156.9v-256.1h156.9v50h-94.5Z"/>
    <path class="st0" d="M3918.3,1561.1l-66.8,256.1h-75.5l-40.9-168.6-42.3,168.6h-75.5l-64.9-256.1h66.8l36.8,186.4,45.6-186.4h68.6l43.8,186.4,37.2-186.4h67.1Z"/>
    <g>
      <path class="st0" d="M3881.1,1855.3v256.1h-62.4v-153.6l-57.3,153.6h-50.3l-57.6-154v154h-62.4v-256.1h73.7l71.9,177.3,71.1-177.3h73.3Z"/>
      <path class="st0" d="M4085.4,2066.2h-95.6l-15.3,45.2h-65.3l92.7-256.1h72.2l92.7,256.1h-66l-15.3-45.2ZM4069.4,2018l-31.7-93.8-31.4,93.8h63.1Z"/>
      <path class="st0" d="M4379.1,1855.3v50h-67.9v206.1h-62.4v-206.1h-67.9v-50h198.1Z"/>
      <path class="st0" d="M4472.9,1905.3v51.8h83.5v48.2h-83.5v56.2h94.5v50h-156.9v-256.1h156.9v50h-94.5Z"/>
    </g>
    <polygon class="st0" points="3076.6 1855.3 2842 1855.3 2970.1 1983.4 2842 2111.4 3076.6 2111.4 3204.7 1983.4 3076.6 1855.3"/>
    <polygon class="st0" points="3365.2 1855.3 3130.6 1855.3 3258.7 1983.4 3130.6 2111.4 3365.2 2111.4 3493.3 1983.4 3365.2 1855.3"/>
  </g>
  <g>
    <path d="M5516,1710.6c10.9-19.8,26.2-35.3,45.8-46.3,19.6-11.1,41.8-16.6,66.6-16.6s56.4,8,78.1,24.1c21.6,16.1,36.1,37.9,43.4,65.7h-68.6c-5.1-10.7-12.3-18.8-21.7-24.4-9.4-5.6-20-8.4-31.9-8.4-19.2,0-34.8,6.7-46.7,20.1-11.9,13.4-17.9,31.3-17.9,53.6s6,40.3,17.9,53.6c11.9,13.4,27.5,20.1,46.7,20.1s22.6-2.8,31.9-8.4c9.4-5.6,16.6-13.7,21.7-24.4h68.6c-7.3,27.7-21.8,49.6-43.4,65.5-21.7,15.9-47.7,23.9-78.1,23.9s-47-5.5-66.6-16.6c-19.6-11.1-34.8-26.5-45.8-46.2-10.9-19.7-16.4-42.2-16.4-67.5s5.5-47.9,16.4-67.7Z"/>
    <path d="M5918.7,1906.7l-53.3-96.7h-15v96.7h-62.4v-256.1h104.7c20.2,0,37.4,3.5,51.6,10.6,14.2,7.1,24.9,16.7,31.9,29,7.1,12.3,10.6,26,10.6,41s-4.8,32.2-14.4,45.6c-9.6,13.4-23.8,22.9-42.5,28.5l59.1,101.4h-70.4ZM5850.5,1765.8h38.7c11.4,0,20-2.8,25.7-8.4,5.7-5.6,8.6-13.5,8.6-23.7s-2.9-17.4-8.6-23c-5.7-5.6-14.3-8.4-25.7-8.4h-38.7v63.5Z"/>
    <path d="M6088.4,1700.5v51.8h83.5v48.2h-83.5v56.2h94.5v50h-156.9v-256.1h156.9v50h-94.5Z"/>
    <path d="M6575.8,1650.6l-66.8,256.1h-75.5l-40.9-168.6-42.3,168.6h-75.5l-64.9-256.1h66.8l36.8,186.4,45.6-186.4h68.6l43.8,186.4,37.2-186.4h67.1Z"/>
    <g>
      <path d="M6538.7,1944.8v256.1h-62.4v-153.6l-57.3,153.6h-50.3l-57.6-154v154h-62.4v-256.1h73.7l71.9,177.3,71.1-177.3h73.3Z"/>
      <path d="M6743,2155.7h-95.6l-15.3,45.2h-65.3l92.7-256.1h72.2l92.7,256.1h-66l-15.3-45.2ZM6726.9,2107.5l-31.7-93.8-31.4,93.8h63.1Z"/>
      <path d="M7036.7,1944.8v50h-67.9v206.1h-62.4v-206.1h-67.9v-50h198.1Z"/>
      <path d="M7130.4,1994.8v51.8h83.5v48.2h-83.5v56.2h94.5v50h-156.9v-256.1h156.9v50h-94.5Z"/>
    </g>
    <polygon points="5734.2 1944.8 5499.6 1944.8 5627.6 2072.9 5499.6 2200.9 5734.2 2200.9 5862.2 2072.9 5734.2 1944.8"/>
    <polygon points="6022.7 1944.8 5788.1 1944.8 5916.2 2072.9 5788.1 2200.9 6022.7 2200.9 6150.8 2072.9 6022.7 1944.8"/>
  </g>
  <g>
    <path d="M2873.6,2553c10.9-19.8,26.2-35.3,45.8-46.3,19.6-11.1,41.8-16.6,66.6-16.6s56.4,8,78.1,24.1c21.6,16.1,36.1,37.9,43.4,65.7h-68.6c-5.1-10.7-12.3-18.8-21.7-24.4-9.4-5.6-20-8.4-31.9-8.4-19.2,0-34.8,6.7-46.7,20.1-11.9,13.4-17.9,31.3-17.9,53.6s6,40.3,17.9,53.6c11.9,13.4,27.5,20.1,46.7,20.1s22.6-2.8,31.9-8.4c9.4-5.6,16.6-13.7,21.7-24.4h68.6c-7.3,27.7-21.8,49.6-43.4,65.5-21.7,15.9-47.7,23.9-78.1,23.9s-47-5.5-66.6-16.6c-19.6-11.1-34.8-26.5-45.8-46.2-10.9-19.7-16.4-42.2-16.4-67.5s5.5-47.9,16.4-67.7Z"/>
    <path d="M3276.3,2749.1l-53.3-96.7h-15v96.7h-62.4v-256.1h104.7c20.2,0,37.4,3.5,51.6,10.6,14.2,7.1,24.9,16.7,31.9,29,7.1,12.3,10.6,26,10.6,41s-4.8,32.2-14.4,45.6c-9.6,13.4-23.8,22.9-42.5,28.5l59.1,101.4h-70.4ZM3208.1,2608.3h38.7c11.4,0,20-2.8,25.7-8.4,5.7-5.6,8.6-13.5,8.6-23.7s-2.9-17.4-8.6-23c-5.7-5.6-14.3-8.4-25.7-8.4h-38.7v63.5Z"/>
    <path d="M3446,2542.9v51.8h83.5v48.2h-83.5v56.2h94.5v50h-156.9v-256.1h156.9v50h-94.5Z"/>
    <path d="M3933.4,2493l-66.8,256.1h-75.5l-40.9-168.6-42.3,168.6h-75.5l-64.9-256.1h66.8l36.8,186.4,45.6-186.4h68.6l43.8,186.4,37.2-186.4h67.1Z"/>
    <g>
      <path d="M3896.3,2787.2v256.1h-62.4v-153.6l-57.3,153.6h-50.3l-57.6-154v154h-62.4v-256.1h73.7l71.9,177.3,71.1-177.3h73.3Z"/>
      <path d="M4100.6,2998.1h-95.6l-15.3,45.2h-65.3l92.7-256.1h72.2l92.7,256.1h-66l-15.3-45.2ZM4084.5,2949.9l-31.7-93.8-31.4,93.8h63.1Z"/>
      <path d="M4394.3,2787.2v50h-67.9v206.1h-62.4v-206.1h-67.9v-50h198.1Z"/>
      <path d="M4488,2837.2v51.8h83.5v48.2h-83.5v56.2h94.5v50h-156.9v-256.1h156.9v50h-94.5Z"/>
    </g>
    <polygon class="st1" points="3091.8 2787.2 2857.2 2787.2 2985.2 2915.3 2857.2 3043.3 3091.8 3043.3 3219.8 2915.3 3091.8 2787.2"/>
    <polygon class="st1" points="3380.3 2787.2 3145.7 2787.2 3273.8 2915.3 3145.7 3043.3 3380.3 3043.3 3508.4 2915.3 3380.3 2787.2"/>
  </g>
  <g>
    <path class="st0" d="M5514.9,2607.7c10.9-19.8,26.2-35.3,45.8-46.3,19.6-11.1,41.8-16.6,66.6-16.6s56.4,8,78.1,24.1c21.6,16.1,36.1,37.9,43.4,65.7h-68.6c-5.1-10.7-12.3-18.8-21.7-24.4-9.4-5.6-20-8.4-31.9-8.4-19.2,0-34.8,6.7-46.7,20.1-11.9,13.4-17.9,31.3-17.9,53.6s6,40.3,17.9,53.6c11.9,13.4,27.5,20.1,46.7,20.1s22.6-2.8,31.9-8.4c9.4-5.6,16.6-13.7,21.7-24.4h68.6c-7.3,27.7-21.8,49.6-43.4,65.5-21.7,15.9-47.7,23.9-78.1,23.9s-47-5.5-66.6-16.6c-19.6-11.1-34.8-26.5-45.8-46.2-10.9-19.7-16.4-42.2-16.4-67.5s5.5-47.9,16.4-67.7Z"/>
    <path class="st0" d="M5917.7,2803.8l-53.3-96.7h-15v96.7h-62.4v-256.1h104.7c20.2,0,37.4,3.5,51.6,10.6,14.2,7.1,24.9,16.7,31.9,29,7.1,12.3,10.6,26,10.6,41s-4.8,32.2-14.4,45.6c-9.6,13.4-23.8,22.9-42.5,28.5l59.1,101.4h-70.4ZM5849.4,2663h38.7c11.4,0,20-2.8,25.7-8.4,5.7-5.6,8.6-13.5,8.6-23.7s-2.9-17.4-8.6-23c-5.7-5.6-14.3-8.4-25.7-8.4h-38.7v63.5Z"/>
    <path class="st0" d="M6087.3,2597.7v51.8h83.5v48.2h-83.5v56.2h94.5v50h-156.9v-256.1h156.9v50h-94.5Z"/>
    <path class="st0" d="M6574.7,2547.7l-66.8,256.1h-75.5l-40.9-168.6-42.3,168.6h-75.5l-64.9-256.1h66.8l36.8,186.4,45.6-186.4h68.6l43.8,186.4,37.2-186.4h67.1Z"/>
    <g>
      <path class="st0" d="M6537.6,2841.9v256.1h-62.4v-153.6l-57.3,153.6h-50.3l-57.6-154v154h-62.4v-256.1h73.7l71.9,177.3,71.1-177.3h73.3Z"/>
      <path class="st0" d="M6741.9,3052.8h-95.6l-15.3,45.2h-65.3l92.7-256.1h72.2l92.7,256.1h-66l-15.3-45.2ZM6725.8,3004.7l-31.7-93.8-31.4,93.8h63.1Z"/>
      <path class="st0" d="M7035.6,2841.9v50h-67.9v206.1h-62.4v-206.1h-67.9v-50h198.1Z"/>
      <path class="st0" d="M7129.3,2891.9v51.8h83.5v48.2h-83.5v56.2h94.5v50h-156.9v-256.1h156.9v50h-94.5Z"/>
    </g>
    <polygon class="st1" points="5733.1 2841.9 5498.5 2841.9 5626.5 2970 5498.5 3098 5733.1 3098 5861.1 2970 5733.1 2841.9"/>
    <polygon class="st1" points="6021.7 2841.9 5787 2841.9 5915.1 2970 5787 3098 6021.7 3098 6149.7 2970 6021.7 2841.9"/>
  </g>
  <g>
    <polygon class="st1" points="3351.7 4205.2 2834.5 4205.2 3116.8 4487.4 2834.5 4769.7 3351.7 4769.7 3634 4487.4 3351.7 4205.2"/>
    <polygon class="st1" points="3987.9 4205.2 3470.7 4205.2 3753 4487.4 3470.7 4769.7 3987.9 4769.7 4270.2 4487.4 3987.9 4205.2"/>
  </g>
  <g>
    <circle class="st0" cx="906" cy="906" r="906"/>
    <g>
      <path class="st1" d="M179.8,722.6c9.4-17,22.5-30.3,39.3-39.8,16.8-9.5,35.8-14.2,57.1-14.2s48.4,6.9,67,20.7c18.6,13.8,31,32.6,37.3,56.3h-58.9c-4.4-9.2-10.6-16.2-18.6-21-8-4.8-17.2-7.2-27.4-7.2-16.5,0-29.8,5.7-40.1,17.2-10.2,11.5-15.3,26.8-15.3,46s5.1,34.5,15.3,46c10.2,11.5,23.6,17.2,40.1,17.2s19.4-2.4,27.4-7.2c8-4.8,14.2-11.8,18.6-21h58.9c-6.3,23.8-18.7,42.5-37.3,56.2-18.6,13.7-40.9,20.5-67,20.5s-40.3-4.7-57.1-14.2c-16.8-9.5-29.9-22.7-39.3-39.6-9.4-16.9-14.1-36.2-14.1-57.9s4.7-41.1,14.1-58.1Z"/>
      <path class="st1" d="M525.4,890.9l-45.7-83h-12.8v83h-53.5v-219.8h89.8c17.3,0,32.1,3,44.3,9.1,12.2,6.1,21.3,14.4,27.4,24.9,6.1,10.5,9.1,22.3,9.1,35.2s-4.1,27.7-12.4,39.1c-8.2,11.5-20.4,19.6-36.5,24.4l50.7,87h-60.4ZM466.9,770h33.2c9.8,0,17.2-2.4,22.1-7.2,4.9-4.8,7.4-11.6,7.4-20.3s-2.5-14.9-7.4-19.7c-4.9-4.8-12.3-7.2-22.1-7.2h-33.2v54.5Z"/>
      <path class="st1" d="M671,714v44.5h71.7v41.3h-71.7v48.2h81.1v42.9h-134.6v-219.8h134.6v42.9h-81.1Z"/>
      <path class="st1" d="M1089.2,671.1l-57.3,219.8h-64.8l-35.1-144.6-36.3,144.6h-64.8l-55.7-219.8h57.3l31.6,160,39.1-160h58.9l37.6,160,31.9-160h57.6Z"/>
      <g>
        <path d="M1057.4,923.6v219.8h-53.5v-131.8l-49.1,131.8h-43.2l-49.5-132.1v132.1h-53.5v-219.8h63.2l61.7,152.1,61-152.1h62.9Z"/>
        <path d="M1232.7,1104.5h-82l-13.1,38.8h-56l79.5-219.8h62l79.5,219.8h-56.7l-13.1-38.8ZM1218.9,1063.2l-27.2-80.5-26.9,80.5h54.2Z"/>
        <path d="M1484.7,923.6v42.9h-58.2v176.9h-53.5v-176.9h-58.2v-42.9h170Z"/>
        <path d="M1565.1,966.5v44.5h71.7v41.3h-71.7v48.2h81.1v42.9h-134.6v-219.8h134.6v42.9h-81.1Z"/>
      </g>
      <polygon class="st1" points="367 923.6 165.7 923.6 275.6 1033.5 165.7 1143.3 367 1143.3 476.9 1033.5 367 923.6"/>
      <polygon class="st1" points="614.7 923.6 413.4 923.6 523.2 1033.5 413.4 1143.3 614.7 1143.3 724.5 1033.5 614.7 923.6"/>
    </g>
  </g>
</svg>