<?xml version="1.0" encoding="UTF-8"?>
<svg id="Layer_1" xmlns="http://www.w3.org/2000/svg" version="1.1" viewBox="0 0 1725.4 553.3">
  <!-- Generator: Adobe Illustrator 29.0.0, SVG Export Plug-In . SVG Version: 2.1.0 Build 186)  -->
  <defs>
    <style>
      .st0 {
        fill: #00007f;
      }
    </style>
  </defs>
  <path class="st0" d="M16.4,62.9c10.9-19.8,26.2-35.3,45.8-46.3C81.8,5.5,104,0,128.8,0s56.4,8,78.1,24.1c21.6,16.1,36.1,37.9,43.4,65.7h-68.6c-5.1-10.7-12.3-18.8-21.7-24.4-9.4-5.6-20-8.4-31.9-8.4-19.2,0-34.8,6.7-46.7,20.1-11.9,13.4-17.9,31.3-17.9,53.6s6,40.3,17.9,53.6c11.9,13.4,27.5,20.1,46.7,20.1s22.6-2.8,31.9-8.4c9.4-5.6,16.6-13.7,21.7-24.4h68.6c-7.3,27.7-21.8,49.6-43.4,65.5-21.7,15.9-47.7,23.9-78.1,23.9s-47-5.5-66.6-16.6c-19.6-11.1-34.8-26.5-45.8-46.2C5.5,178.4,0,155.9,0,130.6s5.5-47.9,16.4-67.7Z"/>
  <path class="st0" d="M419.2,259l-53.3-96.7h-15v96.7h-62.4V2.9h104.7c20.2,0,37.4,3.5,51.6,10.6,14.2,7.1,24.9,16.7,31.9,29,7.1,12.3,10.6,26,10.6,41s-4.8,32.2-14.4,45.6c-9.6,13.4-23.8,22.9-42.5,28.5l59.1,101.4h-70.4ZM351,118.2h38.7c11.4,0,20-2.8,25.7-8.4,5.7-5.6,8.6-13.5,8.6-23.7s-2.9-17.4-8.6-23c-5.7-5.6-14.3-8.4-25.7-8.4h-38.7v63.5Z"/>
  <path class="st0" d="M588.8,52.9v51.8h83.5v48.2h-83.5v56.2h94.5v50h-156.9V2.9h156.9v50h-94.5Z"/>
  <path class="st0" d="M1076.2,2.9l-66.8,256.1h-75.5l-40.9-168.6-42.3,168.6h-75.5L710.3,2.9h66.8l36.8,186.4L859.5,2.9h68.6l43.8,186.4L1009.1,2.9h67.1Z"/>
  <g>
    <path d="M1039.1,297.2v256.1h-62.4v-153.6l-57.3,153.6h-50.3l-57.6-154v154h-62.4v-256.1h73.7l71.9,177.3,71.1-177.3h73.3Z"/>
    <path d="M1243.4,508h-95.6l-15.3,45.2h-65.3l92.7-256.1h72.2l92.7,256.1h-66l-15.3-45.2ZM1227.4,459.9l-31.7-93.8-31.4,93.8h63.1Z"/>
    <path d="M1537.1,297.2v50h-67.9v206.1h-62.4v-206.1h-67.9v-50h198.1Z"/>
    <path d="M1630.9,347.1v51.8h83.5v48.2h-83.5v56.2h94.5v50h-156.9v-256.1h156.9v50h-94.5Z"/>
  </g>
  <polygon class="st0" points="234.6 297.2 0 297.2 128.1 425.2 0 553.3 234.6 553.3 362.7 425.2 234.6 297.2"/>
  <polygon class="st0" points="523.2 297.2 288.6 297.2 416.6 425.2 288.6 553.3 523.2 553.3 651.2 425.2 523.2 297.2"/>
</svg>