<?xml version="1.0" encoding="UTF-8"?><svg id="Vrstva_1" xmlns="http://www.w3.org/2000/svg" viewBox="0 0 850.39 164.46"><path d="M103.52,88.8l-8.92-33.49-9.06,33.49h17.98ZM63.65,28.35h62.41l35.16,103.95h-46.61l-4.57-16.74h-31.17l-4.64,16.74H28.35L63.65,28.35Z" style="fill:#000; stroke-width:0px;"/><polygon points="171.31 28.35 224.44 28.35 255.03 84.38 255.03 28.35 295.48 28.35 295.48 132.29 244.66 132.29 211.83 72.27 211.83 132.29 171.31 132.29 171.31 28.35" style="fill:#000; stroke-width:0px;"/><polygon points="346.45 102.65 304.62 28.35 354.28 28.35 368.85 60.24 383.35 28.35 432.35 28.35 390.67 102.5 390.67 132.3 346.45 132.3 346.45 102.65" style="fill:#000; stroke-width:0px;"/><path d="M497.09,110.26c8.34,0,13.63-3.04,13.63-10.66,0-7.1-5.29-10-13.27-10h-11.82v20.66h11.45ZM497.17,68.07c7.1,0,11.82-2.9,11.82-9.49,0-6.24-4.86-8.48-11.67-8.48h-11.67v17.98h11.53ZM441.57,28.35h67.05c28.92,0,44.43,7.68,44.43,25.01,0,12.98-8.99,21.02-21.24,24.21,14.5,2.9,25.08,11.16,25.08,25.51,0,22.33-19.57,29.21-52.7,29.21h-62.63V28.35Z" style="fill:#000; stroke-width:0px;"/><path d="M636.46,88.8l-8.92-33.49-9.06,33.49h17.98ZM596.6,28.35h62.41l35.16,103.95h-46.61l-4.57-16.74h-31.17l-4.64,16.74h-45.88l35.3-103.95Z" style="fill:#000; stroke-width:0px;"/><path d="M758.33,73.07c8.77,0,15.08-2.83,15.08-11.38,0-7.76-5.87-10.44-15.01-10.44h-10.08v21.82h10ZM704.25,28.35h66.83c30.37,0,45.74,9.71,45.74,30.74,0,15.15-7.9,23.56-18.41,27.84l23.63,45.38h-49.65l-15.51-36.39h-8.55v36.39h-44.07V28.35Z" style="fill:#000; stroke-width:0px;"/></svg>